<svg width="600" height="600" xmlns="http://www.w3.org/2000/svg">
 <style type="text/css">.st0{fill:#fff;}
	.st1{fill:#84BD00;}</style>
 <defs>
  <linearGradient y2="0.5" x2="1" y1="0" x1="0" id="svg_10">
   <stop offset="0" stop-color="#0080a4"/>
   <stop offset="1" stop-color="#02a7c9"/>
  </linearGradient>
 </defs>
 <g>
  <title>background</title>
  <rect fill="none" id="canvas_background" height="602" width="602" y="-1" x="-1"/>
 </g>
 <g>
  <title>Layer 1</title>
  <rect rx="100" stroke="#000" id="svg_8" height="599.995149" width="599.992642" y="0" x="0.004639" stroke-width="0" fill="url(#svg_10)"/>
  <g stroke="null" transform="rotate(90 297.8313293457031,370.40841674804693) " id="svg_6">
   <rect stroke="null" id="svg_7" height="457.614089" width="13.7" class="st1" y="141.601359" x="290.981323"/>
  </g>
  <g stroke="null" id="svg_1">
   <path stroke="null" id="svg_2" d="m162.519939,349.426374l-43.153534,-61.037783l-22.066137,24.735428l0,36.302355l-23.311806,0l0,-133.731468l23.311806,0l0,66.821246l59.614161,-66.821246l28.294482,0l-49.826761,55.610225l54.98739,78.121244l-27.8496,0z" class="st0"/>
   <path stroke="null" id="svg_3" d="m286.375031,243.989388l0,105.436986l-22.066137,0l0,-15.214957c-8.630707,11.211021 -20.28661,17.706296 -34.522827,17.706296c-23.044877,0 -36.302355,-15.481887 -36.302355,-39.149598l0,-68.689749l22.066137,0l0,63.618097c0,11.211021 3.381102,23.934641 20.909444,23.934641c15.659839,0 27.938577,-11.033069 27.938577,-28.472435l0,-58.991326l21.977161,0l0,-0.177953z" class="st0"/>
   <path stroke="null" id="svg_4" d="m325.702582,243.989388l0,15.481887c9.609447,-12.634643 21.888184,-17.884248 35.768496,-17.884248c29.896057,0 48.225187,24.112593 48.225187,54.98739c0,31.319678 -18.507083,55.254319 -48.225187,55.254319c-13.880312,0 -26.070073,-5.249605 -35.768496,-17.706296l0,50.182667l-22.066137,0l0,-140.315719l22.066137,0zm30.696844,87.997619c20.108657,0 29.718104,-15.837792 29.718104,-35.145662c0,-19.485823 -9.609447,-35.323615 -29.718104,-35.323615c-20.108657,0 -30.696844,15.837792 -30.696844,35.323615c0,19.485823 10.855116,35.145662 30.696844,35.145662z" class="st0"/>
   <path stroke="null" id="svg_5" d="m525.632462,302.268904l-80.345653,0c0.97874,19.30787 13.613383,29.896057 32.298418,29.896057c12.45669,0 22.688972,-4.804723 30.518891,-13.257478l14.41417,13.880312c-11.033069,11.655903 -25.714168,19.040941 -45.733849,19.040941c-35.501567,0 -55.254319,-23.489759 -55.254319,-54.631485c0,-31.319678 19.841728,-55.610225 53.02991,-55.610225c31.942513,0 51.428336,22.688972 51.428336,53.02991c0.088976,3.203149 -0.088976,5.783463 -0.355905,7.651967zm-21.888184,-16.104721c-1.601574,-17.706296 -13.880312,-26.692908 -28.917317,-26.692908c-16.638579,0 -27.938577,11.033069 -29.09527,26.692908l58.012586,0z" class="st0"/>
  </g>
 </g>
</svg>